<?xml version="1.0" encoding="utf-8"?>
<!-- Generator: Adobe Illustrator 23.0.6, SVG Export Plug-In . SVG Version: 6.00 Build 0)  -->
<svg version="1.1" id="Layer_1" xmlns="http://www.w3.org/2000/svg" xmlns:xlink="http://www.w3.org/1999/xlink" x="0px" y="0px"
	 width="864px" height="864px" viewBox="0 0 864 864" enable-background="new 0 0 864 864" xml:space="preserve">
<g>
	<path d="M551.7297,314.0826c-4.361,2.0333-8.8719,4.1356-8.6093,10.2344l0.0701,1.6262l1.6273-0.0175
		c9.0284-0.0969,15.019-5.463,18.3141-16.4044l3.1846-10.577l-6.1864,9.1505C558.0836,311.1207,554.8531,312.6265,551.7297,314.0826
		z"/>
	<path d="M842.8655,409.5332c-0.2571-0.5789-0.8054-1.3406-1.9655-1.809l0.0033-0.0104l-0.2222-0.0728
		c-0.0295-0.0104-0.0591-0.0203-0.0886-0.0306c-0.0219-0.0071-0.0438-0.0137-0.0657-0.0208l-0.2418-0.0793l-0.0044,0.0126
		c-0.0197-0.0044-0.0383-0.0082-0.0569-0.0126c-1.8746-0.4126-3.8105,0.6588-4.4234,2.5225
		c-3.1408,9.5176-17.7056,46.4545-28.5726,62.6559c-3.3859,5.0439-8.2142,8.4397-12.9145,9.0848
		c-5.1315,0.7048-9.8734-1.3357-12.9955-5.5998c-3.4921-4.7687-4.8185-10.9184-5.6556-16.3054
		c-0.8547-5.5019-1.2399-11.4787-1.2476-19.3795c-0.0033-2.551,0-5.1008,0.0022-7.6501c0.0076-7.3651,0.0153-14.9802-0.1127-22.4809
		c-0.1817-10.542-0.4082-23.6617-4.14-35.2148c-1.3143-4.0672-4.0667-9.5319-9.7169-12.4669
		c-5.6611-2.9411-12.3695-1.7116-17.942,3.2891c-4.6718,4.1881-8.1147,9.7256-10.867,14.5905
		c-2.8574,5.0543-5.5342,10.6197-8.6782,18.0465c-7.9111,18.6999-14.1578,37.6969-18.9357,53.3008
		c-2.2128-14.1063-3.1124-28.4304-3.723-41.9928c21.9747-26.0118,37.0889-50.8915,44.9301-73.9573
		c9.8481-28.9743,8.2416-55.2258-4.7605-77.9961c-11.4962-21.1173-41.4981-37.4243-69.7862-37.9321
		c-26.1661-0.4985-48.5272,12.1162-63.3076,35.5142c-14.7782-23.3974-37.1907-36.0159-63.301-35.5142
		c-28.2892,0.5067-58.2921,16.8137-69.7731,37.9026c-19.9513,34.9418-13.21,77.2284,20.0301,125.7228
		c-12.5676,0.6325-24.0114,9.1368-30.3269,16.7349c-0.3677,0.4427-9.0121,11.0032-11.2051,28.4703
		c-0.3086,0.7661-0.6227,1.5409-0.9543,2.3502c-3.8729,9.4492-8.2099,19.5064-13.6751,29.035
		c-2.2653,3.9534-4.8721,7.9751-8.5667,10.6109c-3.2251,2.302-8.2088,3.514-12.0806,1.0369
		c-4.3369-2.7764-7.1352-8.8123-8.5535-18.452c-1.4752-10.0238-1.3767-20.0706-1.114-31.2177
		c0.0996-3.7613,0.3327-7.5998,0.557-11.3113c0.2823-4.6538,0.5734-9.4657,0.6106-14.2212
		c0.0186-2.3616-1.2049-4.5936-3.1933-5.8253c-1.914-1.1857-4.1772-1.2755-6.2061-0.2468
		c-3.5578,1.8052-3.6924,5.6611-3.7909,8.4769l-0.0317,0.8213c-0.2025,4.3555-0.1423,8.7105-0.0843,12.9216
		c0.0339,2.476,0.0876,4.9492,0.162,7.4236l0.0132,0.4104c0.0361,0.974,0.0569,1.5622-0.232,2.2774
		c-0.4848,1.1994-1.0112,2.4262-1.6098,3.7498c-5.1971,11.4662-10.693,19.4068-17.2964,24.9908
		c-5.1183,4.3276-16.7875,10.8566-24.3134,4.593c-7.4931-6.2439-5.0811-19.757-2.9756-27.2556
		c2.4612-8.7636,6.576-16.9905,11.899-23.7914c4.0732-5.2059,12.5501-13.86,23.3919-13.4267
		c1.995,0.0832,3.8094,0.4432,5.3941,1.0697l0.2331,0.0974c0.5888,0.2506,1.4796,0.6314,2.4973,0.3934
		c1.079-0.2495,1.9381-1.0746,2.2423-2.1542c0.3031-1.0768,0.0022-2.2276-0.7847-3.0013c-1.1764-1.1584-3.0226-1.7149-4.5055-2.1619
		l-0.5264-0.1603c-2.4536-0.7639-5.0406-1.1529-7.6901-1.1562c-0.0186,0-0.0339,0-0.0525,0
		c-20.4612,0-36.6786,17.42-42.1274,34.6414c-1.1545,3.6464-1.914,7.8794-2.2018,12.2563l-0.0963,0.2501
		c-0.4093,1.0637-0.8186,2.1274-1.2454,3.1835c-4.2768,10.6076-8.3412,20.0191-14.7815,27.7765
		c-2.7687,3.3356-6.5399,7.5046-11.157,10.1578c-3.9178,2.2495-8.5415,3.2907-13.3862,3.0199
		c-5.0778-0.2889-8.2887-1.983-9.8142-5.1796c-1.9425-4.0628-1.589-9.0717-1.0156-14.2776
		c0.7037-6.4025,5.695-26.9787,7.0444-32.2289c1.2115-4.7101,2.3781-9.4514,3.468-14.0926c0.417-1.7832-0.0022-3.6486-1.1513-5.1172
		c-1.1545-1.4757-2.8716-2.3359-4.7134-2.36c-0.0109,0-0.0208,0-0.0306,0c-1.1874,0-3.3312,0.783-7.3683,2.4174
		c-0.8317,0.3371-1.531,0.621-1.9359,0.7644c-6.7675,2.3693-13.9257,4.6204-20.5587,3.8872
		c-1.3756-0.0782-2.8847-0.5554-4.3096-1.1239c0.4191-1.0703,0.8591-2.1444,1.2892-3.1944
		c1.6065-3.9227,3.2667-7.9795,4.0699-12.2568c0.5078-2.691,1.7072-11.8716-4.1159-16.9861
		c-2.7731-2.6166-7.0849-3.5359-10.9907-2.3409c-3.3838,1.0342-6.3057,3.8084-8.2263,7.8121
		c-3.5206,7.3371-3.1583,17.0807,0.9018,24.2461c3.7438,6.6083,10.9195,11.6943,19.1962,13.6056
		c7.3847,1.7055,15.1853,0.5264,22.6576-1.2624c-2.2478,9.6293-8.0676,37.8835-5.7673,49.6867
		c1.16,5.9374,4.3074,10.7034,8.8621,13.419c4.2855,2.5608,9.6107,3.3958,16.272,2.5493
		c9.4695-1.1277,17.7779-6.4381,26.1421-16.7016c5.1697-6.2553,8.8763-13.5662,11.8946-20.4913
		c2.8224,11.7956,10.1765,18.4898,20.7414,18.5976c0.0974,0.0011,0.1926,0.0016,0.2889,0.0016
		c14.0735-0.0011,26.8545-10.4517,37.2028-30.3334c0.5822,8.6651,1.5474,17.1016,3.9594,25.1358
		c2.8672,9.5466,7.0827,15.7314,12.8894,18.9078c10.0999,5.5243,21.1758-0.4323,26.8983-9.1674
		c5.6535-8.6323,9.0755-16.3826,12.584-24.5131c1.8024,9.2353,8.5557,18.1527,19.1797,18.9215
		c15.483,1.1277,29.3901-10.0703,40.4836-32.4571c0.4761,10.0944,1.1042,24.199,1.7947,41.769
		c-35.6685,22.5093-71.8141,47.8394-89.4113,87.1313c-4.5186,10.0949-7.2983,20.8372-8.2591,31.929
		c-1.0988,12.6617,0.4914,22.8508,4.86,31.1487c7.2917,13.8524,22.4924,20.127,37.5912,20.127
		c6.2411,0,12.4648-1.0725,18.1051-3.125c11.1756-4.0666,19.6777-12.926,24.842-19.6415
		c5.9588-7.7458,10.8768-17.304,14.6162-28.409c6.8135-20.2369,8.5962-40.8973,9.1762-65.6934
		c0.3688-15.6876,0.4651-32.4576,0.313-54.284c17.9661-14.915,31.7211-35.9131,37.8977-57.8692
		c14.5331-1.8522,25.2753-8.1552,31.9399-18.7458l1.7991-2.859l-3.3663,0.2889c-9.1696,0.789-16.4635-0.2123-22.1039-3.0527
		c11.632-0.4536,23.2628-5.7738,30.4003-10.8018c7.6156-5.364,16.5423-15.025,16.6375-24.5996
		c0.0865-8.6088-7.643-16.37-13.2231-18.145c-2.4689-0.7852-8.9026-2.3299-15.2969,0.2807
		c-5.4806,2.2385-11.6703,8.3697-12.5403,14.7552c-0.0985,0.725-0.1346,1.4314-0.1696,2.1154
		c-0.0482,0.9641-0.0952,1.8746-0.3141,2.5833c-0.2462,0.7939-0.9794,1.3471-1.7554,1.9337l-0.3403,0.2594
		c-1.5704,1.2137-4.1006,2.9389-7.0302,4.9366c-2.3201,1.583-4.9509,3.3772-7.3683,5.1063
		c-5.5527,3.9692-10.6678,8.1984-10.5015,12.2317c0.0306,0.7387,0.2233,1.4276,0.5767,2.064
		c-6.6428,1.3121-7.8575-0.1757-8.4802-0.9357c-0.1094-0.1335-0.2123-0.2572-0.3119-0.3666
		c-0.162-0.1768-0.3185-0.3387-0.463-0.4892c-0.0142-0.0148-0.0284-0.0295-0.0438-0.0454c0.0799-0.0575,0.174-0.1215,0.2823-0.1931
		l2.4722-2.348l-2.4317-0.9565c-3.1473-1.2377-5.2168-2.8026-6.298-4.8004c2.8629,1.5222,6.2893,2.5159,10.2399,2.9641
		l0.8919,0.1012l2.2697-2.6806l-1.7291-0.7764c0.3765,0.0646,0.7573,0.1176,1.1414,0.1581l0.9455,0.1001l2.2139-2.9668
		l-1.6339-0.9417c-1.1951-0.6884-2.0815-1.4583-2.6855-2.3518c1.6174,0.6479,3.41,0.8552,5.3667,0.6189l0.7924-0.0963l2.0234-3.2513
		l-0.5165-0.1537l0.6249-0.0739l0.4192-0.7371c1.4161-2.4836,2.749-5.0718,4.0765-7.9122l0.1017-0.2189l0.4355-3.1397
		l-2.3342,0.4919c-4.5613,0.9608-9.1751,2.424-14.0363,4.4546l-0.3174-0.1992l0.1116,0.2851
		c-0.7463,0.3141-1.4982,0.6407-2.2577,0.9816l-0.1619,0.0837c-3.0292,1.7756-5.7159,3.9249-8.0567,6.4431l-0.6851-0.7223
		c1.7236-2.3748,3.6026-4.5,6.1065-6.0425l0.4345-0.2659l0.1466-0.1013c1.4041-1.079,2.9263-2.0951,4.5613-3.0445l2.3015,0.9488
		l-1.1611-1.5907c3.2513-1.7718,6.9229-3.2984,10.9841-4.5651l0.6719,0.1286l-0.278-0.2506
		c0.7814-0.2391,1.5781-0.4684,2.3879-0.6884l1.5386-0.4186l-0.337-1.5584c-1.0648-4.9388-4.4672-7.6501-9.8383-7.8405
		c-0.858-0.0295-1.8298,0.0235-2.9624,0.1647l-1.7324,0.2161l0.2813,1.7231c0.1324,0.8076,0.3546,1.5874,0.6697,2.3436
		c-1.0134-0.6796-1.7609-1.496-2.2161-2.436l-0.592-1.223l-1.3198,0.3234c-0.4968,0.1215-1.0046,0.2517-1.5201,0.3901l-0.812,0.2172
		l-0.313,0.7792c-0.9663,2.4038-1.4205,4.546-1.3614,6.4535c-1.0922-1.1266-1.9534-2.5345-2.6254-4.268l-0.58-1.4966l-2.9657,0.997
		l-0.2966,0.6873c-1.543,3.5731-2.1964,6.6099-1.9622,9.1718c-1.9928-1.3466-3.19-3.1972-3.6945-5.66l-0.3973-1.9332l-3.2458,1.2295
		l-0.151,0.9652c-0.4848,3.0899-0.3907,5.8882,0.2758,8.3773c-1.89-1.7165-3.0927-3.5901-3.7832-5.8007l-0.5756-1.8418
		l-2.9734,1.4145l-0.1598,0.8257c-0.7639,3.9479-0.0995,7.6534,1.9764,11.0656c-3.0555-1.2837-5.2913-3.3739-6.7741-6.3172
		l-1.0221-2.0273l-1.6404,1.5693c-0.3382,0.3228-0.6599,0.6534-0.9652,0.9893c-1.4741-3.4532-1.345-7.0471,0.3808-10.9184
		c0.8164-1.8331,2.6111-3.7214,4.5109-5.7208c0.8361-0.8799,1.7006-1.7904,2.5334-2.7474c0.5691-0.6539,1.137-1.3198,1.7127-1.9944
		c2.0902-2.4519,4.2308-4.9619,6.8353-7.3946c-0.2014,1.5283-0.2364,2.9553-0.1072,4.303l0.2506,2.6303l2.2763-1.3423
		c1.183-0.6976,2.1613-1.4867,3.0248-2.1827c0.464-0.3743,0.9072-0.7332,1.3526-1.0484c2.8289-2.0032,5.0637-3.5851,6.5881-5.4543
		c1.3077-1.6054,1.8911-3.2519,2.4054-4.7052c0.2134-0.6008,0.4148-1.1688,0.6501-1.6859c0.4158-0.9094,1.0516-1.7635,1.787-2.7528
		c0.4323-0.58,0.8821-1.1858,1.3253-1.8489c5.5079-8.2422,9.4301-16.9451,11.9176-26.472
		c1.7346,5.1402,1.8878,10.1781,0.4793,15.2816l-1.0834,3.9277l3.538-2.0213c13.5504-7.7426,19.2367-19.2618,16.9681-34.3104
		c4.0327,6.8502,4.6006,14.3662,1.7564,22.7933l-0.9488,2.8092l2.8979-0.6292c16.3322-3.5463,24.5673-13.0125,24.5519-28.1819
		c3.1769,6.9875,2.4021,14.7957-2.3113,23.6918l-1.0615,2.0032l2.2248,0.4334c12.3947,2.4131,21.618,1.3636,28.1918-3.2109
		c4.1739-2.905,7.1702-7.2518,8.9431-12.9621c2.4809,8.3653-0.4006,15.3861-8.8381,21.8111l-1.798,1.368l1.8276,1.3286
		c15.332,11.1526,29.0947,11.6987,40.9717,1.6437c-1.4566,8.397-6.668,13.7462-16.4373,17.0693l-2.1734,0.7392l1.3614,1.8484
		c8.8742,12.0516,20.0881,15.9224,33.3846,11.5488c-3.3751,4.8086-7.8389,8.4162-13.5383,10.9611l-1.415,0.6315l0.5143,1.4615
		c3.2273,9.1664,9.3677,14.6518,18.2856,16.3568c-6.6373,4.1148-13.4146,6.3018-20.6046,6.6646l-3.5862,0.1806l2.436,2.6385
		c10.1524,10.9956,12.8423,21.1496,8.3204,31.7124c-3.0412-4.7178-7.7678-8.4113-14.0953-11.0049l-2.1822-0.8947l-0.1346,2.354
		c-1.2268,21.5573-7.7546,36.214-20.4361,45.6447c0.9489-4.1236,0.6818-8.64-0.8229-13.14l-0.7912-2.3644l-1.8954,1.6202
		c-25.3574,21.676-50.694,30.4095-77.4358,26.709l-5.3799-0.7447l4.0185,3.6535c25.9801,23.6223,47.5368,38.8618,47.7513,39.0128
		l0.9674,0.6812l0.9674-0.6812c0.4181-0.2944,41.2377-29.2019,78.8311-69.6527c0.6085,8.5809,1.3734,16.4028,2.3288,23.8078
		c0.8383,6.4999,1.7192,11.783,2.7742,16.626c0.0832,0.3798,0.1598,0.7776,0.2375,1.1847c0.4673,2.43,1.0495,5.4548,3.4024,7.2392
		c1.7542,1.3318,4.0874,1.7368,6.2313,1.0823c2.1154-0.6446,3.8062-2.2402,4.5416-4.2801
		c0.8416-1.7931,2.1909-7.2764,3.9933-14.7853c0.731-3.0445,1.4216-5.9199,1.8484-7.4389
		c2.4711-8.7915,5.4926-18.0936,9.2386-28.4391c3.9583-10.9354,7.9571-20.2478,12.2272-28.4709
		c2.7622-5.3208,5.2781-9.4919,7.9188-13.1274c1.7739-2.4448,7.1757-9.8777,11.1953-8.7418
		c4.1005,1.2011,5.8624,11.8454,5.2386,31.6368c-0.0219,0.7053-0.0416,1.3165-0.0536,1.815
		c-0.1937,8.3478-0.36,16.515-0.2747,24.6598c0.1313,12.5528,0.2802,26.7806,4.5745,39.8752
		c5.2518,15.4611,14.9304,24.4633,26.5535,24.6981c11.1723,0.2616,18.9357-7.8909,23.8329-14.0165
		c10.3264-12.9129,23.3898-48.0725,27.6818-59.6267c0.6927-1.8642,1.1929-3.2114,1.3844-3.6656l0.1772-0.4055
		C842.8097,413.0083,843.6075,411.1999,842.8655,409.5332z M526.1589,464.511l-0.0383-5.039
		c-0.1138-15.6269-0.232-31.7638-0.7891-47.673c11.7578,2.7244,22.3425,3.9747,31.5077,3.7235
		C551.4584,433.6403,540.4436,451.2108,526.1589,464.511z M428.0037,622.7253c-4.5449-7.3229-6.3254-16.7689-5.4434-28.8774
		c0.7803-10.7132,3.328-21.0697,7.5719-30.7816c7.1987-16.4717,19.3439-32.2453,37.1283-48.2213
		c14.8581-13.3463,31.4792-24.2882,47.4033-34.1035c0.6107,15.8546,1.2256,32.1972,1.4325,48.2793
		c0.2255,17.4933-0.1838,36.1478-4.6609,54.0416c-5.8789,23.4954-15.9941,39.4922-30.9233,48.9048
		c-7.4701,4.7084-18.2736,6.6127-28.9042,5.0926C441.1973,635.5687,432.8145,630.4778,428.0037,622.7253z M478.3803,457.3742
		c-3.2382,0.5559-7.7853,0.6473-11.0552-2.0749c-2.6538-2.2106-4.2658-5.8784-4.7922-10.9009
		c-0.8022-7.6567,1.137-16.6042,5.9303-27.3535c1.485-3.3274,3.7755-7.1276,5.3197-9.3152
		c5.1238-8.0205,14.5747-17.0331,24.8562-17.0331c0.2298,0,0.4607,0.0044,0.6916,0.0137
		c3.7854,5.1878,7.9057,10.4856,12.259,15.7664c0.1215,4.6237,0.2397,8.2799,0.3808,11.7337
		c-3.5359,9.7606-7.8334,17.9781-12.7788,24.43C492.6595,451.1642,485.6567,456.1217,478.3803,457.3742z M528.8084,371.74
		l0.5526-2.0984c0.5931-0.8547,1.16-1.7099,1.7171-2.551c0.2845-0.429,0.5668-0.8558,0.8503-1.2776v1.1441
		C530.787,368.4454,529.7474,370.0399,528.8084,371.74z M532.5139,366.2135l-0.5396-0.4695
		c0.2189-0.325,0.4366-0.6473,0.6566-0.9663l0.7584,0.3951C533.0917,365.5136,532.7995,365.8606,532.5139,366.2135z
		 M245.7884,399.859c-0.0629-0.1343-0.1182-0.2476-0.1636-0.3391c-2.2462-5.3316-2.4738-13.2711,1.5852-17.5843
		c1.1819-1.3969,3.6869-1.7181,5.2518-0.6708c1.9874,1.328,2.4568,4.4223,2.633,6.6613c0.0241,5.7815-2.1657,11.053-4.4847,16.6337
		c-0.1171,0.2834-0.2353,0.5669-0.3524,0.8503C248.3722,403.8816,246.8467,401.9911,245.7884,399.859z"/>
	<path d="M233.49,333.7887c-0.0044-0.058-0.0131-0.2342-0.0306-0.5718c-0.0033-0.4722-0.0285-1.0271-0.058-1.6755
		c-0.0033-0.0876-0.0088-0.2036-0.0208-0.3365c-0.0044-0.105-0.0066-0.1685-0.0066-0.197h-0.0164
		c-0.0016-0.0103-0.0044-0.0216-0.006-0.032c-0.8033-15.5965-3.8511-37.7113-13.5082-58.462
		c-9.8646-21.1961-24.2652-35.9393-42.8004-43.8209c-13.4716-5.7279-28.4555-6.953-43.3333-3.5457
		c-16.2567,3.7219-30.607,12.961-44.4387,22.192c-0.0306-1.1327-0.1105-2.2735-0.3217-3.398
		c-0.7223-4.79-3.0642-8.9962-6.5957-11.8443c-1.7225-1.3855-7.0619-4.048-10.2695-4.0688c-0.0131,0-0.0252,0-0.0394,0
		c-3.2316,0-5.1906,2.4629-5.3941,4.7911c-0.2211,2.5209,1.4402,4.5897,4.1006,5.0395c0.5067,0.11,4.0874,2.117,4.1662,7.1079
		c0.0383,2.3857-0.0317,4.8316-0.0996,7.1971c-0.046,1.6038-0.093,3.2535-0.1072,4.8995l-1.3964,0.9297
		c-12.9539,8.6471-30.6957,20.4875-43.9943,9.1609c-5.3383-4.5487-8.1946-12.6169-7.1068-20.0766
		c0.5286-3.6256,2.0672-6.8835,4.4519-9.4213c2.0454-2.1789,5.3131-4.4436,8.3675-4.3698c0.394,0.0263,0.7485,0.1155,1.0462,0.2736
		c0.1237,0.1149,0.2933,0.2774,0.4104,0.3989c0.8241,1.7236,2.7665,2.3961,4.5274,1.5671c1.7663-0.8339,2.4798-2.772,1.6558-4.5181
		c-1.2673-2.6401-3.9649-4.3435-7.2753-4.5591c-7.376-0.2025-13.5296,5.352-16.5467,10.1858
		c-3.5184,5.6381-4.5788,12.961-2.9143,20.0645c1.5912,7.3317,5.4992,13.4426,11.0049,17.2077
		c5.6381,3.8604,12.8981,5.4625,19.9797,4.3818c10.1951-1.9129,19.159-7.4521,27.7836-13.0803
		c-0.0088,44.3248,0.2353,88.0193,0.7267,129.93l0.1335,11.3086c-19.7641,8.5289-32.8592,26.5688-33.471,46.2536
		c-0.638,20.4574,10.7422,40.6582,28.9918,51.4644c10.3067,6.1005,22.6915,9.1943,36.1937,9.1943
		c8.3073,0,17.0381-1.1721,25.9659-3.5353c11.8355-3.132,21.4243-7.1024,29.3146-12.1381
		c7.8652-5.0198,15.2784-11.476,22.6631-19.7362c27.0635-30.253,44.501-73.808,47.8399-119.4975
		c0.6358-8.6906,0.7688-16.9812,0.4153-24.662L233.49,333.7887z M195.8813,253.715c11.1034,13.308,18.6709,31.383,22.4913,53.7221
		c3.1933,18.6542,3.7,38.9247,1.508,60.2494c-0.1341,0.9232-0.7425,5.8562-0.858,6.9585
		c-3.1031,21.5293-8.8337,41.736-17.0337,60.0601c-9.3272,20.8421-21.0883,37.6493-34.9582,49.9548
		c-14.8078,13.1361-35.0162,20.8372-56.9045,21.6836c-22.0579,0.8624-41.6338-8.13-52.3618-24.0376
		c-8.1519-12.0888-10.8068-26.9683-7.1002-39.8018c3.4078-11.8005,12.6595-22.2856,24.9864-28.4577l0.0481,4.1361
		c0.1368,11.7939,0.2747,23.5856,0.4312,35.3806l0.1379,10.4052c0.0372,3.1512,0.0766,6.4096,1.1316,9.6336
		c1.9261,5.8849,6.2565,9.8273,12.8729,11.7179l0.1434,0.0339c2.0289,0.3923,4.059-0.5171,5.161-2.3184
		c1.1031-1.8019,0.9904-4.0212-0.2867-5.654c-0.7781-0.9937-1.7543-1.3882-2.4667-1.676c-0.2233-0.0903-0.4498-0.1784-0.6665-0.2944
		c-0.9401-0.5039-1.7181-1.2093-2.2522-2.0382c-1.2782-1.9901-0.9849-13.5252-0.8886-17.3155
		c0.0263-1.009,0.0471-1.8434,0.0514-2.4196c0.0897-12.1819,0.1587-24.3632,0.2287-36.545l0.0449-7.8
		c15.0409-3.2382,29.8891-0.8361,39.9496,6.5114c5.2442,3.8325,8.8785,9.3327,10.5091,15.9076
		c0.7529,3.0325,0.7584,6.0737,0.0175,8.7954c-0.5734,2.1055-1.6842,3.7142-2.83,4.0995c-0.7496,0.2534-1.6547-0.0049-2.6866-0.7672
		l-0.2025-1.5748l-0.3819,0.0301c-0.6741-0.9652-1.8407-1.5146-3.1572-1.3827c-1.9425,0.1975-3.2612,1.7871-3.0653,3.7192
		c0.4443,3.8773,3.8281,6.379,8.2974,6.0627c4.732-0.3535,8.8785-3.5331,10.5628-8.0999
		c2.6418-7.1555-0.1237-16.0269-3.2612-21.3898c-9.7496-18.3595-34.2283-22.6516-53.7112-18.968
		c0.2473-43.5451,0.2572-87.8043,0.0317-131.5869c-0.0252-4.6909-0.0558-9.3819-0.0865-14.0729l-0.0077-1.1069
		c9.0471-6.0726,17.3215-11.4815,26.304-16.086c11.1099-5.6967,20.3223-8.5907,28.995-9.1078
		C163.5232,229.1477,182.6931,237.9091,195.8813,253.715z"/>
</g>
</svg>
